<svg width="24" height="24" viewBox="0 0 24 24" fill="none" xmlns="http://www.w3.org/2000/svg">
<path d="M15.084 4.42383C14.3643 5.29395 13.1611 5.93848 12.2051 5.93848C12.0869 5.93848 11.9795 5.91699 11.915 5.90625C11.9043 5.85254 11.8721 5.69141 11.8721 5.51953C11.8721 4.42383 12.4307 3.32812 13.043 2.64062C13.8057 1.73828 15.0947 1.07227 16.1689 1.0293C16.1904 1.14746 16.2012 1.29785 16.2012 1.44824C16.2012 2.54395 15.7393 3.62891 15.084 4.42383ZM15.8359 6.16406C16.4375 6.16406 18.6182 6.22852 20.0469 8.28027C19.918 8.37695 17.7588 9.60156 17.7588 12.3301C17.7588 15.4775 20.5088 16.6055 20.5947 16.627C20.584 16.7021 20.1543 18.1523 19.1445 19.6455C18.2314 20.9453 17.2754 22.2666 15.8359 22.2666C14.3857 22.2666 14.0098 21.418 12.3555 21.418C10.7227 21.418 10.1426 22.2666 8.83203 22.2666C7.5 22.2666 6.57617 21.0742 5.52344 19.5918C4.28809 17.8408 3.2998 15.123 3.2998 12.5449C3.2998 8.41992 5.98535 6.16406 8.63867 6.16406C10.0352 6.16406 11.1953 7.1416 12.0869 7.1416C12.9248 7.1416 14.2354 6.16406 15.8359 6.16406Z" fill="black"/>
</svg>
